<?xml version="1.0" encoding="utf-8"?>
<svg xmlns="http://www.w3.org/2000/svg" viewBox="9.7886 0 482.0274 290.3873" width="482.027px" height="290.387px" preserveAspectRatio="none"><g transform="matrix(1, 0, 0, 1, 0.9716230179611358, -2.709735910739539)" id="object-0"><g transform="matrix(1, 0, 0, 1, 16.925804, -15.549087)"><g transform="matrix(1.334737, 0, 0, 1.283832, 73.573121, 18.90074)" style=""><path style="opacity:1" fill="#fefefe" d="M -0.5,-0.5 C 79.5,-0.5 159.5,-0.5 239.5,-0.5C 239.5,69.5 239.5,139.5 239.5,209.5C 159.5,209.5 79.5,209.5 -0.5,209.5C -0.5,139.5 -0.5,69.5 -0.5,-0.5 Z"/></g><g><g transform="matrix(1.334737, 0, 0, 1.283832, 73.573121, 18.90074)" style=""><path style="opacity:1" fill="#ecedf5" d="M 138.5,171.5 C 137.833,171.5 137.5,171.833 137.5,172.5C 129.597,154.033 122.264,135.366 115.5,116.5C 113.131,101.028 110.131,85.6945 106.5,70.5C 106.721,67.9028 107.221,67.9028 108,70.5C 118.324,104.133 128.491,137.8 138.5,171.5 Z"/></g><g transform="matrix(1.334737, 0, 0, 1.283832, 73.573121, 18.90074)" style=""><path style="opacity:1" fill="#2f3590" d="M 6.5,105.5 C 19.5043,105.333 32.5043,105.5 45.5,106C 59.1161,109.733 63.2827,118.233 58,131.5C 56.1266,133.709 53.96,135.542 51.5,137C 63.7802,142.821 66.9468,151.988 61,164.5C 57.6988,169.234 53.1988,172.067 47.5,173C 33.8374,173.5 20.1707,173.667 6.5,173.5C 6.5,150.833 6.5,128.167 6.5,105.5 Z"/></g><g transform="matrix(1.334737, 0, 0, 1.283832, 73.573121, 18.90074)" style=""><path style="opacity:1" fill="#2f3590" d="M 109.5,105.5 C 111.769,109.038 113.769,112.705 115.5,116.5C 122.264,135.366 129.597,154.033 137.5,172.5C 132.652,173.814 127.652,173.814 122.5,172.5C 120.593,167.609 118.593,162.776 116.5,158C 107.5,157.333 98.5,157.333 89.5,158C 87.4067,162.776 85.4067,167.609 83.5,172.5C 78.8804,173.493 74.2137,173.827 69.5,173.5C 77.4989,151.007 85.9989,128.674 95,106.5C 99.7367,105.531 104.57,105.197 109.5,105.5 Z"/></g><g transform="matrix(1.334737, 0, 0, 1.283832, 73.573121, 18.90074)" style=""><path style="opacity:1" fill="#3f57a6" d="M 106.5,70.5 C 110.131,85.6945 113.131,101.028 115.5,116.5C 113.769,112.705 111.769,109.038 109.5,105.5C 107.692,93.4277 105.692,81.4277 103.5,69.5C 103.338,67.4727 103.505,65.4727 104,63.5C 104.39,66.1042 105.224,68.4375 106.5,70.5 Z"/></g><g transform="matrix(1.334737, 0, 0, 1.283832, 73.573121, 18.90074)" style=""><path style="opacity:1" fill="#fafafc" d="M 20.5,116.5 C 27.8409,116.334 35.1742,116.5 42.5,117C 47.4344,119.665 48.6011,123.498 46,128.5C 44.6811,130.487 42.8477,131.654 40.5,132C 33.8417,132.5 27.175,132.666 20.5,132.5C 20.5,127.167 20.5,121.833 20.5,116.5 Z"/></g><g transform="matrix(1.334737, 0, 0, 1.283832, 73.573121, 18.90074)" style=""><path style="opacity:1" fill="#fcf9fa" d="M 226.5,133.5 C 219.105,132.484 211.771,131.151 204.5,129.5C 199.881,128.686 195.214,128.353 190.5,128.5C 190.5,127.167 190.5,125.833 190.5,124.5C 186.366,123.515 182.032,123.182 177.5,123.5C 177.784,125.415 177.451,127.081 176.5,128.5C 170.705,123.742 164.038,122.242 156.5,124C 154.372,124.655 152.372,125.489 150.5,126.5C 144.464,126.36 138.464,126.693 132.5,127.5C 141.298,118.202 150.298,109.035 159.5,100C 162.174,98.4117 165.008,97.245 168,96.5C 177.203,100.855 185.703,106.355 193.5,113C 201.631,117.476 209.965,121.476 218.5,125C 221.371,127.703 224.038,130.536 226.5,133.5 Z"/></g><g transform="matrix(1.334737, 0, 0, 1.283832, 73.573121, 18.90074)" style=""><path style="opacity:1" fill="#ec272a" d="M 112.5,62.5 C 128.447,69.4694 143.447,77.9694 157.5,88C 163.324,92.1468 169.324,92.4801 175.5,89C 185.034,78.8999 196.7,73.0666 210.5,71.5C 212.762,73.6848 214.262,76.3515 215,79.5C 215.311,85.8737 215.977,92.207 217,98.5C 220.4,104.965 224.067,111.298 228,117.5C 229.771,123.19 231.604,128.856 233.5,134.5C 231.01,135.632 228.676,135.299 226.5,133.5C 224.038,130.536 221.371,127.703 218.5,125C 209.965,121.476 201.631,117.476 193.5,113C 185.703,106.355 177.203,100.855 168,96.5C 165.008,97.245 162.174,98.4117 159.5,100C 150.298,109.035 141.298,118.202 132.5,127.5C 130.883,128.038 129.216,128.371 127.5,128.5C 120.517,106.561 113.85,84.5605 107.5,62.5C 109.167,62.5 110.833,62.5 112.5,62.5 Z"/></g><g transform="matrix(1.334737, 0, 0, 1.283832, 73.573121, 18.90074)" style=""><path style="opacity:1" fill="#fdfbfb" d="M 210.5,71.5 C 196.7,73.0666 185.034,78.8999 175.5,89C 169.324,92.4801 163.324,92.1468 157.5,88C 143.447,77.9694 128.447,69.4694 112.5,62.5C 119.25,58.9755 126.583,56.9755 134.5,56.5C 142.936,57.4205 151.269,58.9205 159.5,61C 171.833,61.3333 184.167,61.6667 196.5,62C 202.145,63.8266 206.812,66.9933 210.5,71.5 Z"/></g><g transform="matrix(1.334737, 0, 0, 1.283832, 73.573121, 18.90074)" style=""><path style="opacity:1" fill="#f6f6fa" d="M 102.5,121.5 C 106.105,129.463 109.438,137.63 112.5,146C 106.141,146.831 99.8072,146.664 93.5,145.5C 96.5084,137.471 99.5084,129.471 102.5,121.5 Z"/></g><g transform="matrix(1.334737, 0, 0, 1.283832, 73.573121, 18.90074)" style=""><path style="opacity:1" fill="#2f3690" d="M 176.5,128.5 C 176.783,129.289 177.283,129.956 178,130.5C 178.495,128.527 178.662,126.527 178.5,124.5C 182.5,124.5 186.5,124.5 190.5,124.5C 190.5,125.833 190.5,127.167 190.5,128.5C 195.214,128.353 199.881,128.686 204.5,129.5C 199.833,130.167 195.167,130.833 190.5,131.5C 190.908,148.209 190.408,164.876 189,181.5C 187.178,187.167 183.344,190.667 177.5,192C 170.874,193.305 164.208,193.638 157.5,193C 148.296,191.299 143.629,185.799 143.5,176.5C 148.511,177.192 153.511,178.026 158.5,179C 160.37,182.602 163.37,184.102 167.5,183.5C 171.897,184.053 175.063,182.386 177,178.5C 177.667,174.167 177.667,169.833 177,165.5C 167.102,176.063 157.102,176.063 147,165.5C 140.614,152.817 141.114,140.484 148.5,128.5C 149.5,128.167 150.167,127.5 150.5,126.5C 152.372,125.489 154.372,124.655 156.5,124C 164.038,122.242 170.705,123.742 176.5,128.5 Z"/></g><g transform="matrix(1.334737, 0, 0, 1.283832, 73.573121, 18.90074)" style=""><path style="opacity:1" fill="#b0b2d3" d="M 190.5,124.5 C 186.5,124.5 182.5,124.5 178.5,124.5C 178.662,126.527 178.495,128.527 178,130.5C 177.283,129.956 176.783,129.289 176.5,128.5C 177.451,127.081 177.784,125.415 177.5,123.5C 182.032,123.182 186.366,123.515 190.5,124.5 Z"/></g><g transform="matrix(1.334737, 0, 0, 1.283832, 73.573121, 18.90074)" style=""><path style="opacity:1" fill="#fafafc" d="M 163.5,132.5 C 175.954,134.028 180.454,141.028 177,153.5C 174.71,161.398 169.543,164.231 161.5,162C 158.894,160.062 157.061,157.562 156,154.5C 153.396,145.143 155.896,137.809 163.5,132.5 Z"/></g><g transform="matrix(1.334737, 0, 0, 1.283832, 73.573121, 18.90074)" style=""><path style="opacity:1" fill="#f8f8fa" d="M 20.5,143.5 C 27.8409,143.334 35.1742,143.5 42.5,144C 49.5472,146.699 51.3805,151.532 48,158.5C 47.0975,159.701 45.9308,160.535 44.5,161C 36.5607,162.321 28.5607,162.821 20.5,162.5C 20.5,156.167 20.5,149.833 20.5,143.5 Z"/></g></g><g transform="matrix(1.334737, 0, 0, 1.283832, 73.573121, 18.90074)" style=""><path style="opacity:1" fill="#525ba3" d="M 190.5,131.5 C 195.167,130.833 199.833,130.167 204.5,129.5C 211.771,131.151 219.105,132.484 226.5,133.5C 228.676,135.299 231.01,135.632 233.5,134.5C 231.604,128.856 229.771,123.19 228,117.5C 224.067,111.298 220.4,104.965 217,98.5C 215.977,92.207 215.311,85.8737 215,79.5C 214.262,76.3515 212.762,73.6848 210.5,71.5C 206.812,66.9933 202.145,63.8266 196.5,62C 184.167,61.6667 171.833,61.3333 159.5,61C 151.269,58.9205 142.936,57.4205 134.5,56.5C 126.583,56.9755 119.25,58.9755 112.5,62.5C 110.833,62.5 109.167,62.5 107.5,62.5C 113.85,84.5605 120.517,106.561 127.5,128.5C 129.216,128.371 130.883,128.038 132.5,127.5C 138.464,126.693 144.464,126.36 150.5,126.5C 150.167,127.5 149.5,128.167 148.5,128.5C 141.575,128.066 134.908,129.066 128.5,131.5C 133.197,144.125 137.197,156.958 140.5,170C 140.167,170.833 139.833,171.667 139.5,172.5C 138.893,172.376 138.56,172.043 138.5,171.5C 128.491,137.8 118.324,104.133 108,70.5C 107.221,67.9028 106.721,67.9028 106.5,70.5C 105.224,68.4375 104.39,66.1042 104,63.5C 103.505,65.4727 103.338,67.4727 103.5,69.5C 102.707,65.6612 102.04,61.6612 101.5,57.5C 97.8291,54.7168 96.6625,51.0501 98,46.5C 100.267,45.0652 102.267,45.3985 104,47.5C 104.041,51.4301 104.207,55.2634 104.5,59C 112.104,59.3595 119.437,58.0262 126.5,55C 129.5,54.8333 132.5,54.6667 135.5,54.5C 144.904,55.4653 154.237,56.9653 163.5,59C 173.5,59 183.5,59 193.5,59C 203.809,60.6386 211.309,66.1386 216,75.5C 217.557,84.2008 219.224,92.8674 221,101.5C 227.771,110.045 232.105,119.712 234,130.5C 235.123,133.249 236.623,135.749 238.5,138C 229.359,137.373 220.359,135.706 211.5,133C 204.54,131.913 197.54,131.413 190.5,131.5 Z"/></g><g transform="matrix(1.334737, 0, 0, 1.283832, 73.573121, 18.90074)" style=""><path style="opacity:1" fill="#e9eaf4" d="M 98.5,47.5 C 103.576,48.0581 104.576,50.3914 101.5,54.5C 98.9066,52.9292 97.9066,50.5959 98.5,47.5 Z"/></g></g><text style="fill: rgb(51, 51, 51); font-family: Arial, sans-serif; font-size: 27px; white-space: pre;" x="8.817" y="287.497">PT PELAYARAN BAHTERA ADHIGUNA</text></g></svg>