<svg xmlns="http://www.w3.org/2000/svg" version="1.1" width="1781px" height="1160px" style="shape-rendering:geometricPrecision; text-rendering:geometricPrecision; image-rendering:optimizeQuality; fill-rule:evenodd; clip-rule:evenodd" xmlns:xlink="http://www.w3.org/1999/xlink">
<g></g>
<g><path style="opacity:1" fill="#194981" d="M 1616.5,2.5 C 1642.17,1.04672 1666.84,5.21339 1690.5,15C 1693.87,16.3459 1696.87,18.1792 1699.5,20.5C 1683.36,23.6051 1668.69,30.1051 1655.5,40C 1626.5,69 1597.5,98 1568.5,127C 1565.59,128.318 1562.59,128.652 1559.5,128C 1542.03,111.529 1524.86,94.6956 1508,77.5C 1506.52,74.2976 1506.18,70.9643 1507,67.5C 1526.71,43.0734 1550.88,24.5734 1579.5,12C 1591.72,7.86049 1604.06,4.69383 1616.5,2.5 Z" data-index="1"></path></g>
<g><path style="opacity:1" fill="#174f80" d="M 1716.5,117.5 C 1713.58,117.854 1711.25,116.854 1709.5,114.5C 1694.1,98.7197 1678.6,83.053 1663,67.5C 1662.65,65.7525 1662.15,64.0858 1661.5,62.5C 1668.96,54.5351 1676.63,46.7017 1684.5,39C 1701.34,27.5273 1718.01,27.8606 1734.5,40C 1746.05,50.7195 1750.22,63.8862 1747,79.5C 1745.47,84.8918 1743.14,89.8918 1740,94.5C 1732.3,102.369 1724.46,110.036 1716.5,117.5 Z" data-index="2"></path></g>
<g><path style="opacity:1" fill="#125e85" d="M 1661.5,62.5 C 1662.15,64.0858 1662.65,65.7525 1663,67.5C 1678.6,83.053 1694.1,98.7197 1709.5,114.5C 1711.25,116.854 1713.58,117.854 1716.5,117.5C 1712.5,122.167 1708.17,126.5 1703.5,130.5C 1701.88,130.64 1700.71,129.973 1700,128.5C 1699.58,129.672 1698.91,130.672 1698,131.5C 1681.83,115.2 1665.17,98.5334 1648,81.5C 1647.51,79.8659 1647.34,78.1992 1647.5,76.5C 1651.83,71.5 1656.5,66.8333 1661.5,62.5 Z" data-index="3"></path></g>
<g><path style="opacity:1" fill="#194981" d="M 1754.5,73.5 C 1755.5,73.4142 1756.33,73.7476 1757,74.5C 1787.09,132.857 1782.42,188.191 1743,240.5C 1725.17,258.333 1707.33,276.167 1689.5,294C 1677.16,304.168 1663.16,311.168 1647.5,315C 1630.33,318.012 1614.33,315.012 1599.5,306C 1586.32,297.655 1575.32,287.155 1566.5,274.5C 1576.96,274.969 1586.62,272.469 1595.5,267C 1643.33,219.167 1691.17,171.333 1739,123.5C 1750.49,108.862 1755.66,92.1951 1754.5,73.5 Z" data-index="4"></path></g>
<g><path style="opacity:1" fill="#0f6b89" d="M 1647.5,76.5 C 1647.34,78.1992 1647.51,79.8659 1648,81.5C 1665.17,98.5334 1681.83,115.2 1698,131.5C 1698.91,130.672 1699.58,129.672 1700,128.5C 1700.71,129.973 1701.88,130.64 1703.5,130.5C 1698.5,136.167 1693.17,141.5 1687.5,146.5C 1685.59,146.426 1684.42,145.426 1684,143.5C 1683.55,145.929 1682.72,146.096 1681.5,144C 1682.45,143.282 1682.62,142.449 1682,141.5C 1665.42,124.815 1648.59,108.482 1631.5,92.5C 1636.5,86.8333 1641.83,81.5 1647.5,76.5 Z" data-index="5"></path></g>
<g><path style="opacity:1" fill="#0a7a8d" d="M 1625.5,98.5 C 1626.52,100.115 1627.35,102.449 1628,105.5C 1643.89,120.973 1659.56,136.64 1675,152.5C 1675.33,152.167 1675.67,151.833 1676,151.5C 1676.31,152.308 1676.81,152.975 1677.5,153.5C 1678.69,152.347 1679.69,152.347 1680.5,153.5C 1677.17,157.5 1673.5,161.167 1669.5,164.5C 1667.47,162.961 1665.97,160.961 1665,158.5C 1649.92,143.746 1634.75,129.08 1619.5,114.5C 1619.08,112.647 1618.75,110.813 1618.5,109C 1619.86,107.416 1620.53,105.582 1620.5,103.5C 1621.83,101.5 1623.5,99.8333 1625.5,98.5 Z" data-index="6"></path></g>
<g><path style="opacity:1" fill="#04a29a" d="M 1573.5,150.5 C 1574.08,152.443 1575.08,152.777 1576.5,151.5C 1592.17,167.167 1607.83,182.833 1623.5,198.5C 1624.45,201.43 1626.12,203.763 1628.5,205.5C 1614.7,219.799 1600.7,233.965 1586.5,248C 1568.99,259.646 1551.99,258.979 1535.5,246C 1507.64,218.472 1480.14,190.639 1453,162.5C 1440.73,140.369 1444.57,121.536 1464.5,106C 1481.62,97.3186 1497.62,98.9853 1512.5,111C 1528.83,127.333 1545.17,143.667 1561.5,160C 1562.17,160.667 1562.83,160.667 1563.5,160C 1566.7,156.629 1570.04,153.462 1573.5,150.5 Z" data-index="7"></path></g>
<g><path style="opacity:1" fill="#0c748b" d="M 1631.5,92.5 C 1648.59,108.482 1665.42,124.815 1682,141.5C 1682.62,142.449 1682.45,143.282 1681.5,144C 1682.72,146.096 1683.55,145.929 1684,143.5C 1684.42,145.426 1685.59,146.426 1687.5,146.5C 1685.5,149.167 1683.17,151.5 1680.5,153.5C 1679.69,152.347 1678.69,152.347 1677.5,153.5C 1676.81,152.975 1676.31,152.308 1676,151.5C 1675.67,151.833 1675.33,152.167 1675,152.5C 1659.56,136.64 1643.89,120.973 1628,105.5C 1627.35,102.449 1626.52,100.115 1625.5,98.5C 1627.17,96.1667 1629.17,94.1667 1631.5,92.5 Z" data-index="8"></path></g>
<g><path style="opacity:1" fill="#088491" d="M 1620.5,103.5 C 1620.53,105.582 1619.86,107.416 1618.5,109C 1618.75,110.813 1619.08,112.647 1619.5,114.5C 1634.75,129.08 1649.92,143.746 1665,158.5C 1665.97,160.961 1667.47,162.961 1669.5,164.5C 1666.17,168.5 1662.5,172.167 1658.5,175.5C 1655.25,173.694 1652.59,171.194 1650.5,168C 1649.55,167.517 1648.55,167.351 1647.5,167.5C 1646.31,165.095 1644.81,162.761 1643,160.5C 1641.99,159.663 1640.82,159.33 1639.5,159.5C 1638.31,157.095 1636.81,154.761 1635,152.5C 1633.99,151.663 1632.82,151.33 1631.5,151.5C 1630.31,149.095 1628.81,146.761 1627,144.5C 1625.99,143.663 1624.82,143.33 1623.5,143.5C 1622.31,141.095 1620.81,138.761 1619,136.5C 1617.99,135.663 1616.82,135.33 1615.5,135.5C 1614.31,133.095 1612.81,130.761 1611,128.5C 1609.99,127.663 1608.82,127.33 1607.5,127.5C 1607.03,125.799 1607.03,124.299 1607.5,123C 1606.55,122.517 1605.55,122.351 1604.5,122.5C 1604.5,121.5 1604.5,120.5 1604.5,119.5C 1609.5,113.833 1614.83,108.5 1620.5,103.5 Z" data-index="9"></path></g>
<g><path style="opacity:1" fill="#068c93" d="M 1604.5,119.5 C 1604.5,120.5 1604.5,121.5 1604.5,122.5C 1605.55,122.351 1606.55,122.517 1607.5,123C 1607.03,124.299 1607.03,125.799 1607.5,127.5C 1608.82,127.33 1609.99,127.663 1611,128.5C 1612.81,130.761 1614.31,133.095 1615.5,135.5C 1616.82,135.33 1617.99,135.663 1619,136.5C 1620.81,138.761 1622.31,141.095 1623.5,143.5C 1624.82,143.33 1625.99,143.663 1627,144.5C 1628.81,146.761 1630.31,149.095 1631.5,151.5C 1632.82,151.33 1633.99,151.663 1635,152.5C 1636.81,154.761 1638.31,157.095 1639.5,159.5C 1640.82,159.33 1641.99,159.663 1643,160.5C 1644.81,162.761 1646.31,165.095 1647.5,167.5C 1648.55,167.351 1649.55,167.517 1650.5,168C 1652.59,171.194 1655.25,173.694 1658.5,175.5C 1655.5,179.167 1652.17,182.5 1648.5,185.5C 1630.26,167.308 1612.59,149.308 1595.5,131.5C 1594.75,132.376 1594.25,133.376 1594,134.5C 1593.77,133.263 1593.27,132.263 1592.5,131.5C 1596.17,127.167 1600.17,123.167 1604.5,119.5 Z" data-index="10"></path></g>
<g><path style="opacity:1" fill="#049294" d="M 1592.5,131.5 C 1593.27,132.263 1593.77,133.263 1594,134.5C 1594.25,133.376 1594.75,132.376 1595.5,131.5C 1612.59,149.308 1630.26,167.308 1648.5,185.5C 1647.17,187.5 1645.5,189.167 1643.5,190.5C 1642.5,190.586 1641.67,190.252 1641,189.5C 1640.58,190.672 1639.91,191.672 1639,192.5C 1637.67,190.5 1636.33,188.5 1635,186.5C 1620.31,172.808 1605.98,158.808 1592,144.5C 1590.4,142.605 1588.9,140.605 1587.5,138.5C 1590.06,137.782 1590.72,136.449 1589.5,134.5C 1590.17,133.167 1591.17,132.167 1592.5,131.5 Z" data-index="11"></path></g>
<g><path style="opacity:1" fill="#029897" d="M 1589.5,134.5 C 1590.72,136.449 1590.06,137.782 1587.5,138.5C 1588.9,140.605 1590.4,142.605 1592,144.5C 1605.98,158.808 1620.31,172.808 1635,186.5C 1636.33,188.5 1637.67,190.5 1639,192.5C 1639.91,191.672 1640.58,190.672 1641,189.5C 1641.67,190.252 1642.5,190.586 1643.5,190.5C 1638.83,195.833 1633.83,200.833 1628.5,205.5C 1626.12,203.763 1624.45,201.43 1623.5,198.5C 1607.83,182.833 1592.17,167.167 1576.5,151.5C 1575.08,152.777 1574.08,152.443 1573.5,150.5C 1578.5,144.833 1583.83,139.5 1589.5,134.5 Z" data-index="12"></path></g>
<g><path style="opacity: 1;" fill="#08436b" d="M 5.5,327.5 C 54.5,327.5 103.5,327.5 152.5,327.5C 152.333,434.834 152.5,542.167 153,649.5C 166.382,631.451 182.882,616.951 202.5,606C 272.153,567.667 345.153,560.001 421.5,583C 503.99,606.824 560.157,658.99 590,739.5C 612.775,809.713 615.441,880.713 598,952.5C 567.845,1055.32 500.679,1119.16 396.5,1144C 348.635,1154.56 300.968,1153.89 253.5,1142C 212.26,1129.81 178.76,1106.65 153,1072.5C 152.5,1098.83 152.333,1125.16 152.5,1151.5C 103.5,1151.5 54.5,1151.5 5.5,1151.5C 5.5,876.833 5.5,602.167 5.5,327.5 Z" data-index="13"></path></g>
<g><path style="opacity: 1;" fill="#08436a" d="M 820.5,735.5 C 777.452,715.24 732.119,706.073 684.5,708C 679.283,708.93 675.616,711.763 673.5,716.5C 673.5,586.833 673.5,457.167 673.5,327.5C 722.5,327.5 771.5,327.5 820.5,327.5C 820.5,463.5 820.5,599.5 820.5,735.5 Z" data-index="14"></path></g>
<g><path style="opacity:1" fill="#08436b" d="M 1343.5,327.5 C 1380.09,325.051 1409.26,338.384 1431,367.5C 1447.06,397.003 1448.73,427.336 1436,458.5C 1421.28,487.132 1397.78,503.299 1365.5,507C 1332.68,510.843 1305.18,500.676 1283,476.5C 1262.5,447.645 1257.83,416.311 1269,382.5C 1283.78,350.551 1308.62,332.218 1343.5,327.5 Z" data-index="15"></path></g>
<g><path style="opacity: 1;" fill="#edb012" d="M 992.5,897.5 C 935.5,897.5 878.5,897.5 821.5,897.5C 821.167,897.5 820.833,897.5 820.5,897.5C 820.5,897.167 820.5,896.833 820.5,896.5C 846.213,862.119 871.546,827.452 896.5,792.5C 928.085,749.734 959.918,707.068 992,664.5C 1047.31,603.828 1116.14,573.328 1198.5,573C 1207.68,577.564 1209.85,584.397 1205,593.5C 1184.95,619.885 1165.28,646.552 1146,673.5C 1094.59,748.065 1043.42,822.732 992.5,897.5 Z" data-index="16"></path></g>
<g><path style="opacity:1" fill="#7092a9" d="M 1275.5,573.5 C 1327.66,572.501 1380,572.168 1432.5,572.5C 1432.5,765.5 1432.5,958.5 1432.5,1151.5C 1380,1151.83 1327.66,1151.5 1275.5,1150.5C 1327.5,1150.5 1379.5,1150.5 1431.5,1150.5C 1431.5,958.167 1431.5,765.833 1431.5,573.5C 1379.5,573.5 1327.5,573.5 1275.5,573.5 Z" data-index="17"></path></g>
<g><path style="opacity:1" fill="#08436a" d="M 1275.5,573.5 C 1327.5,573.5 1379.5,573.5 1431.5,573.5C 1431.5,765.833 1431.5,958.167 1431.5,1150.5C 1379.5,1150.5 1327.5,1150.5 1275.5,1150.5C 1275.5,958.167 1275.5,765.833 1275.5,573.5 Z" data-index="18"></path></g>
<g><path style="opacity: 1;" fill="#fefefe" d="M 320.5,688.5 C 369.736,686.206 410.57,703.539 443,740.5C 475.926,781.295 489.926,827.961 485,880.5C 479.395,937.261 453.229,981.428 406.5,1013C 365.789,1036.51 323.456,1039.85 279.5,1023C 229.883,998.641 198.717,959.474 186,905.5C 172.962,844.343 185.629,789.343 224,740.5C 249.822,711.176 281.988,693.842 320.5,688.5 Z" data-index="19"></path></g>
<g><path style="opacity:1" fill="#e15b24" d="M 820.5,735.5 C 849.053,750.12 874.387,769.12 896.5,792.5C 871.546,827.452 846.213,862.119 820.5,896.5C 771.026,839.539 722.026,782.206 673.5,724.5C 673.5,721.833 673.5,719.167 673.5,716.5C 675.616,711.763 679.283,708.93 684.5,708C 732.119,706.073 777.452,715.24 820.5,735.5 Z" data-index="20"></path></g>
<g><path style="opacity:1" fill="#08436a" d="M 673.5,724.5 C 722.026,782.206 771.026,839.539 820.5,896.5C 820.5,896.833 820.5,897.167 820.5,897.5C 820.5,982.167 820.5,1066.83 820.5,1151.5C 771.5,1151.5 722.5,1151.5 673.5,1151.5C 673.5,1009.17 673.5,866.833 673.5,724.5 Z" data-index="21"></path></g>
<g><path style="opacity:1" fill="#08436b" d="M 821.5,897.5 C 878.5,897.5 935.5,897.5 992.5,897.5C 1070.63,982.13 1148.96,1066.63 1227.5,1151C 1167.83,1151.83 1108.16,1151.67 1048.5,1150.5C 972.441,1066.44 896.774,982.112 821.5,897.5 Z" data-index="22"></path></g>
</svg>